<svg width="42" height="42" viewBox="0 0 42 42" fill="none" xmlns="http://www.w3.org/2000/svg">
<circle cx="21" cy="21" r="21" fill="#E84A52"/>
<path fill-rule="evenodd" clip-rule="evenodd" d="M24.0157 17.9944L21.4527 12.9663C21.9862 11.8068 22.2529 11.1479 22.2529 10.9964C22.2529 10.4522 21.8937 10.0543 21.1767 9.79999H29.0308C28.0629 10.2348 27.2019 11.3219 26.4493 13.0625L24.0157 17.9944ZM20.1652 25.8054L18.9702 28.2299H26.0175C29.209 28.2299 31.3429 27.633 32.4191 26.4379L28.6531 32.2H9.3943C11.474 31.8007 13.5722 29.3012 15.6876 24.6973C16.4006 23.2822 17.0543 21.975 17.6511 20.7786L20.1652 25.8054ZM13.9129 13.0625C13.9129 15.8322 8.20985 25.6763 6.65039 26.6H12.7298L17.4636 17.0312L22.2516 26.6H27.8463C27.7381 26.5275 27.6852 26.3457 27.6852 26.0558C27.6852 24.5827 33.0106 11.9201 35.7004 11.2138H29.353L24.1873 21.6522L18.862 11.2138H12.7298C13.5181 11.7936 13.9129 12.4102 13.9129 13.0625Z" fill="white"/>
</svg>
