<svg width="42" height="42" viewBox="0 0 42 42" fill="none" xmlns="http://www.w3.org/2000/svg">
<circle cx="21" cy="21" r="21" fill="#8389FF"/>
<path fill-rule="evenodd" clip-rule="evenodd" d="M24.1009 8.39999H18.2506C17.8378 8.39979 17.4571 8.62428 17.255 8.98706L8.19622 25.2755C8.0023 25.6247 8.0023 26.0503 8.19622 26.3994L11.0938 31.6116C11.2956 31.9749 11.6764 32.1999 12.0894 32.2H30.2621C30.6747 32.1995 31.0549 31.9745 31.2564 31.6116L34.1553 26.3994C34.3493 26.0503 34.3493 25.6247 34.1553 25.2755L25.0965 8.98706C24.8944 8.62428 24.5137 8.39979 24.1009 8.39999ZM15.0723 25.8375L21.1758 14.8802L27.2793 25.8375H15.0723Z" fill="white"/>
</svg>
