<svg width="42" height="42" viewBox="0 0 42 42" fill="none" xmlns="http://www.w3.org/2000/svg">
<circle cx="21" cy="21" r="21" fill="#3E3E40"/>
<path fill-rule="evenodd" clip-rule="evenodd" d="M26.7768 14.0232C30.2718 14.3297 33.0311 17.1503 33.215 20.6453C33.0311 14.8816 28.2484 10.2829 22.4234 10.4668C18.9897 10.5895 15.8013 12.3063 13.9618 15.1882C14.2684 11.6932 17.0889 8.93395 20.5839 8.75C14.7589 8.99526 10.2829 13.9618 10.5282 19.7868C10.6508 23.0979 12.3676 26.1637 15.1268 28.0032C11.6318 27.6966 8.93395 24.8761 8.75 21.3811C8.87263 27.1447 13.7166 31.7434 19.4803 31.6208C22.9139 31.5595 26.0411 29.7813 27.9418 26.9608C27.6353 30.3945 24.8147 33.0924 21.3811 33.2763C27.1447 33.0924 31.6821 28.2484 31.4982 22.4234C31.3755 19.0511 29.6587 15.8626 26.7768 14.0232ZM20.9518 25.4279C19.7868 25.4279 18.6832 24.9987 17.8861 24.1403C16.1692 22.4234 16.2305 19.6642 17.8861 18.0087C19.5416 16.3532 22.3621 16.3532 24.0176 18.0087C25.6732 19.6642 25.6732 22.4847 24.0176 24.1403C23.2205 24.9987 22.1168 25.4279 20.9518 25.4279Z" fill="#94FEBF"/>
</svg>
