<svg width="42" height="42" viewBox="0 0 42 42" fill="none" xmlns="http://www.w3.org/2000/svg">
<circle cx="21" cy="21" r="21" fill="#3E3E40"/>
<path d="M24.7388 23.1186L21.1311 25.2285L17.5234 23.1186V18.8901L21.1311 16.7715L24.7388 18.8901V23.1186Z" fill="#94FEBF"/>
<path fill-rule="evenodd" clip-rule="evenodd" d="M9.44922 14.1793L21.1742 7.35001L32.8992 14.1793V27.8207L21.1742 34.65L9.44922 27.8207V14.1793ZM15.462 17.6586V24.307L21.1313 27.6226L26.8005 24.307V17.6586L21.1313 14.3429L15.462 17.6586ZM15.462 28.1393V25.8313L23.1327 30.3268L21.1742 31.4722L15.462 28.1393ZM24.4383 29.5689L30.1505 26.2361V15.7639L21.1828 10.5364L12.2065 15.7639V26.2361L14.1822 27.3901V25.0476V17.2107V16.9179L21.1399 12.8445L28.0976 16.9179V25.0476L22.4111 28.3805L24.4383 29.5689Z" fill="white"/>
</svg>
