<svg width="42" height="42" viewBox="0 0 42 42" fill="none" xmlns="http://www.w3.org/2000/svg">
<circle cx="21" cy="21" r="21" fill="#E84A52"/>
<path d="M15.3886 26.1473C16.4248 25.2646 17.3554 24.2093 17.9502 22.9717C18.3148 22.1946 18.6026 21.3887 18.7465 20.5445C18.948 19.326 19.0247 18.0884 19.0919 16.8508C19.1303 15.997 19.1495 15.1431 19.1495 14.2796V11.2H17.8351C17.8351 11.7085 17.8351 12.217 17.8351 12.7254C17.7967 14.2317 17.7104 15.7379 17.4801 17.225C17.2978 18.3954 17.0388 19.5659 16.5495 20.6404C16.1274 21.5806 15.5805 22.4728 14.8898 23.2307C14.2182 23.9791 13.4219 24.6027 12.5393 25.0728C11.7909 25.4661 10.9851 25.7635 10.1504 25.8882V28.469C10.8412 28.3731 11.5223 28.2004 12.1843 27.9701C13.3356 27.5672 14.458 26.9724 15.3886 26.1473Z" fill="white"/>
<path d="M19.6586 22.9717C19.6586 24.8041 19.6491 26.6461 19.6682 28.4786C20.4645 28.469 21.2704 28.4786 22.0763 28.4786V11.2096C21.2704 11.2096 20.4645 11.2096 19.6586 11.2096C19.6586 15.1239 19.6586 19.0478 19.6586 22.9717Z" fill="white"/>
<path d="M30.5655 25.6484C29.3567 25.255 28.2438 24.5931 27.3228 23.7104C26.3634 22.799 25.6247 21.6573 25.1162 20.4389C24.5789 19.1725 24.3391 17.8102 24.1664 16.4575C23.9553 14.7114 23.8978 12.9557 23.9074 11.2H22.6026V14.0302C22.593 15.6995 22.6506 17.3689 22.7945 19.0286C22.8712 19.7961 22.9576 20.5732 23.159 21.3216C23.3605 22.0699 23.6579 22.7894 24.0417 23.4706C24.531 24.334 25.1833 25.1015 25.9125 25.7827C26.3538 26.1857 26.8143 26.579 27.3228 26.9052C28.0135 27.3561 28.7714 27.7111 29.5581 27.9797C30.2201 28.2004 30.8917 28.3827 31.5825 28.469C31.5825 27.6055 31.5825 26.7517 31.5825 25.8882C31.2467 25.8403 30.9013 25.7539 30.5655 25.6484Z" fill="white"/>
</svg>
