<svg width="42" height="42" viewBox="0 0 42 42" fill="none" xmlns="http://www.w3.org/2000/svg">
<circle cx="21" cy="21" r="21" fill="#667EFB"/>
<path fill-rule="evenodd" clip-rule="evenodd" d="M22.2269 8.78917C21.105 8.73293 19.97 8.70939 18.8611 8.91604C18.5065 8.97585 18.1567 9.05905 17.8076 9.14208C17.7522 9.15527 17.6968 9.16845 17.6414 9.18154C13.2776 10.3129 9.67705 13.9436 8.67254 18.2911C8.29111 19.8372 8.22016 21.4439 8.46381 23.0178C8.4899 23.2022 8.50947 23.4115 8.36858 23.5593C7.71238 24.412 7.12664 25.3249 6.69874 26.3111C6.49915 26.7885 6.95052 27.3247 7.44756 27.3247C7.74396 27.3043 8.00745 27.1282 8.14028 26.8617L8.16568 26.8134C8.43505 26.3011 8.70465 25.7883 9.02085 25.3001C9.10968 25.493 9.19343 25.6885 9.27721 25.8841C9.47522 26.3464 9.67342 26.8092 9.93926 27.2384C11.6691 30.2544 14.7113 32.5275 18.1501 33.2744C20.5218 33.8368 23.0474 33.655 25.3409 32.8506C27.3318 32.1348 29.1144 30.9349 30.5291 29.3585C32.9829 26.6616 34.1349 22.8517 33.5296 19.272C33.5276 19.25 33.5248 19.2274 33.5219 19.2047C33.5078 19.0922 33.493 18.974 33.5765 18.8848C34.1205 18.142 34.6463 17.3808 35.0533 16.5568C35.0809 16.4987 35.1115 16.4407 35.1424 16.3823C35.2561 16.1672 35.3725 15.947 35.3468 15.7001C35.2971 15.2953 34.9384 15.0013 34.5328 15.0331C34.2392 15.02 33.9875 15.2149 33.8674 15.4673C33.5883 16.0035 33.3013 16.5372 32.9803 17.0499L32.9605 17.002C32.6214 16.1846 32.2804 15.3627 31.7775 14.6276C30.3978 12.4475 28.3837 10.7446 26.0075 9.74917C24.8177 9.21293 23.521 8.94089 22.2269 8.78917ZM10.6398 17.2107C11.6052 14.8029 13.4668 12.7639 15.7798 11.5449C18.1658 10.2959 21.0267 9.91527 23.6501 10.5836C27.5886 11.4913 30.8983 14.7035 31.7984 18.6063C29.4476 21.3542 26.0362 23.0217 22.5334 23.8326C22.4327 23.8537 22.3319 23.8751 22.2312 23.8964C21.6501 24.0197 21.0694 24.143 20.4801 24.2054C20.2329 24.229 19.9861 24.2576 19.7393 24.2862C19.03 24.3684 18.321 24.4505 17.6048 24.4146C17.9923 24.0228 18.3883 23.639 18.7843 23.2552C19.2884 22.7667 19.7926 22.2781 20.2792 21.7727C20.0297 21.4703 19.7456 21.1996 19.4617 20.9291C19.376 20.8474 19.2903 20.7657 19.2055 20.6832C18.629 21.228 18.0657 21.7864 17.5025 22.3448C17.111 22.7329 16.7196 23.1209 16.3238 23.5043C16.0671 23.7682 15.796 24.018 15.5249 24.2677C15.2021 24.565 14.8794 24.8624 14.5809 25.1837C14.7265 25.3717 14.888 25.5467 15.0636 25.7069C15.5972 26.2287 16.129 26.7523 16.6608 27.2759C17.3924 27.9964 18.1239 28.7167 18.8598 29.4317C18.9656 29.5333 19.069 29.6368 19.1722 29.7402C19.4 29.9681 19.6269 30.1953 19.8774 30.3996C19.9738 30.305 20.0716 30.2117 20.1696 30.1183C20.4401 29.8603 20.711 29.6019 20.9523 29.3167C20.3668 28.7628 19.7929 28.1978 19.2189 27.6328C18.9552 27.3733 18.6915 27.1137 18.4267 26.8552C18.3591 26.7875 18.2906 26.7207 18.2222 26.6539C18.0011 26.4384 17.7804 26.2232 17.5931 25.9776C20.4044 25.8978 23.2118 25.3903 25.847 24.4094C27.8748 23.685 29.7517 22.5916 31.3836 21.1841C31.4498 21.1242 31.5152 21.0635 31.5806 21.0029C31.7524 20.8435 31.9241 20.6842 32.1102 20.5393C32.3202 23.7555 30.9557 27.0318 28.5227 29.1819C26.8222 30.7142 24.695 31.6886 22.4265 31.9743C20.8036 32.2006 19.139 32.0149 17.5787 31.5335C14.9109 30.686 12.5888 28.8092 11.2451 26.3804C10.8381 25.614 10.4663 24.8214 10.2693 23.9739C10.2432 23.8509 10.2289 23.7058 10.328 23.6077C11.9939 21.7112 14.1791 20.2935 16.5481 19.4041C16.6393 19.3734 16.7305 19.3426 16.8218 19.3118C17.8621 18.9604 18.9065 18.6076 19.9896 18.414C21.4481 18.1236 22.93 17.9118 24.4198 17.8908C23.9514 18.4224 23.4336 18.9079 22.9158 19.3933C22.515 19.7691 22.1143 20.1448 21.7364 20.542C21.9345 20.8345 22.1947 21.0756 22.4544 21.3161C22.5674 21.4208 22.6802 21.5254 22.7878 21.6341C22.9176 21.5352 23.0422 21.4295 23.1609 21.3175C23.8654 20.6132 24.579 19.9178 25.2926 19.2223C26.0062 18.5268 26.7198 17.8313 27.4242 17.127C26.6297 16.31 25.8126 15.5138 24.9952 14.7174C24.453 14.1891 23.9107 13.6608 23.3749 13.1262C23.2012 12.9614 23.0317 12.7924 22.8621 12.6235C22.6267 12.3889 22.3912 12.1543 22.1447 11.9307C21.7716 12.2813 21.3985 12.6318 21.0541 13.0111C21.6 13.5787 22.1691 14.1244 22.7383 14.6701C23.3074 15.2159 23.8765 15.7616 24.4224 16.3292C21.1924 16.4862 17.9414 17.0656 14.9892 18.4114C13.4002 19.1281 11.8804 20.028 10.5824 21.1894C10.3616 21.4022 10.1281 21.6014 9.88317 21.7858C9.79707 20.2294 10.0815 18.6651 10.6398 17.2107Z" fill="white"/>
</svg>
