<svg width="42" height="42" viewBox="0 0 42 42" fill="none" xmlns="http://www.w3.org/2000/svg">
<circle cx="21" cy="21" r="21" fill="#40CBAD"/>
<path fill-rule="evenodd" clip-rule="evenodd" d="M18.2043 14.3307H18.2056H24.1473L27.1293 9.09998H15.2223L18.2043 14.3307ZM15.2223 32.9H21.1758H27.1293L24.1473 27.6679H18.2043L15.2223 32.9ZM31.3293 26.9434L28.346 32.1767L25.3745 26.9447H25.3758L28.346 21.7113H34.3008L31.3293 26.9434ZM14.0043 9.81265L11.0223 15.0447L8.05078 20.2754H14.0043L16.9758 15.0447L14.0043 9.81265ZM16.9745 26.9447H16.9758L14.0043 32.1767L11.0223 26.9447L8.05078 21.71H14.0043L16.9758 26.942L16.9745 26.9447ZM34.3008 20.2767L31.3293 15.0447L28.346 9.81265L25.3745 15.0447L28.3473 20.2767H34.3008Z" fill="white"/>
</svg>
