<svg width="42" height="42" viewBox="0 0 42 42" fill="none" xmlns="http://www.w3.org/2000/svg">
<circle cx="21" cy="21" r="21" fill="#3E3E40"/>
<path d="M11.7427 9.82532C14.3515 7.65017 17.7495 6.42655 21.149 6.49895C25.298 6.48781 29.3778 8.43224 32.0502 11.5947C37.2446 17.6985 36.5055 26.8582 30.4026 32.0526C26.336 35.5118 20.6985 36.4591 15.7247 34.5189C14.4867 34.0315 13.3198 33.3802 12.2551 32.5825C12.5081 30.6778 13.4485 28.8806 14.8217 27.5424C16.3313 26.065 18.3217 25.1792 20.4298 25.0466C20.9867 24.9949 21.5436 25.0402 22.1045 25.014C24.2604 24.96 26.3931 25.4696 28.2918 26.4922C28.5472 26.6266 28.8846 26.7699 28.9005 27.1064C28.9434 27.5376 28.4876 27.723 28.2226 27.9688C28.9148 27.9434 29.56 27.6259 30.1456 27.279C30.7025 26.9608 30.868 26.1103 30.4177 25.633C29.6523 24.7801 28.8265 23.9861 28.0492 23.1427C27.8352 22.9041 27.5384 22.6956 27.478 22.3559C26.7946 19.7931 25.1586 17.588 22.9041 16.1909C21.5301 15.3085 19.9294 14.8018 18.3072 14.6506C14.8257 14.2249 11.2908 14.3522 7.83398 14.9267C8.70277 12.9496 10.0895 11.2168 11.7427 9.82532Z" fill="#3E3E40"/>
<path d="M22.4785 18.6715C22.7129 18.8405 22.9284 19.0341 23.1214 19.2491C23.8247 19.9508 24.5311 20.6494 25.2289 21.3574C25.3783 21.495 25.5118 21.649 25.6267 21.8165C25.0777 21.8356 24.5288 21.8292 23.9806 21.8165C23.6496 21.1005 23.2733 20.4035 22.9296 19.6923C22.7713 19.3557 22.5708 19.0351 22.4785 18.6715Z" fill="#3E3E40"/>
<path fill-rule="evenodd" clip-rule="evenodd" d="M20.2278 5.26894C24.9951 5.03506 29.611 6.97695 32.7775 10.5485C38.5503 17.0461 37.9623 26.9934 31.4639 32.7662C30.5119 33.6121 29.4606 34.3393 28.3333 34.9318C24.3991 37.0346 19.5611 37.3186 15.4001 35.7179C10.1172 33.7038 6.31699 29.0153 5.44011 23.4299C4.83625 19.6318 5.68356 15.6212 7.80222 12.4102C9.74754 9.42697 12.644 7.1888 16.0215 6.05896C17.3819 5.60864 18.7967 5.34293 20.2278 5.26894ZM11.7436 9.8253C10.0903 11.2168 8.70363 12.9496 7.83484 14.9314C11.2917 14.357 14.8265 14.2297 18.308 14.6553C19.9302 14.8065 21.531 15.3133 22.905 16.1956C25.1595 17.5927 26.7955 19.7979 27.4788 22.3607C27.5244 22.617 27.7046 22.7963 27.8822 22.9731C27.94 23.0306 27.9975 23.0879 28.0501 23.1475C28.4031 23.5314 28.767 23.905 29.1307 24.2787L29.1309 24.2788C29.5662 24.7259 30.0016 25.1731 30.4185 25.6377C30.8688 26.1151 30.7065 26.9647 30.1464 27.2838C29.5609 27.6307 28.9157 27.9481 28.2235 27.9736C28.2889 27.9128 28.366 27.8558 28.4444 27.7978C28.6832 27.6211 28.9337 27.4358 28.9013 27.1111C28.887 26.807 28.6101 26.6627 28.3684 26.5368C28.3427 26.5233 28.3173 26.5101 28.2927 26.4969C26.3941 25.4729 24.2611 24.9622 22.1046 25.0155C21.8682 25.0267 21.6317 25.0249 21.3953 25.0232C21.0748 25.0208 20.7543 25.0184 20.4338 25.0482C18.3257 25.1808 16.3354 26.0665 14.8257 27.5439C13.4525 28.8805 12.5121 30.6794 12.2591 32.584C13.3238 33.3818 14.4908 34.0331 15.7287 34.5205C23.1977 37.43 31.6119 33.7329 34.5206 26.263C36.4571 21.2919 35.51 15.6591 32.0543 11.5947C29.3819 8.43142 25.3013 6.48779 21.1547 6.5029C17.7551 6.43051 14.3571 7.65413 11.7484 9.82928L11.7436 9.8253ZM22.7978 19.425C22.6731 19.183 22.5482 18.9407 22.4809 18.6755L22.4785 18.6715C22.7145 18.8411 22.9314 19.0358 23.1253 19.2523C23.3068 19.4333 23.4885 19.6142 23.6702 19.795C24.1926 20.3151 24.7152 20.8352 25.2329 21.3606C25.3823 21.4981 25.5158 21.6521 25.6307 21.8196C25.0817 21.8395 24.5327 21.8332 23.9846 21.8196C23.7936 21.4105 23.5905 21.0086 23.3875 20.6069C23.2344 20.304 23.0813 20.0012 22.9336 19.6954C22.8903 19.6046 22.8441 19.5148 22.7978 19.425Z" fill="white"/>
</svg>
