<svg width="42" height="42" viewBox="0 0 42 42" fill="none" xmlns="http://www.w3.org/2000/svg">
<circle cx="21" cy="21" r="21" fill="#F5675C"/>
<path fill-rule="evenodd" clip-rule="evenodd" d="M20.7524 7.76365C20.9052 7.6788 21.0914 7.6788 21.2442 7.76365L32.1195 13.8245C32.2707 13.9074 32.3649 14.0652 32.3654 14.2366C32.3654 14.4073 32.2729 14.5648 32.1208 14.6488L22.6603 19.9432C22.3267 19.5667 21.8722 19.3163 21.3738 19.2345V16.3563C22.3985 16.1869 23.18 15.326 23.18 14.2852C23.18 13.1237 22.2068 12.1814 21.0049 12.1814C19.803 12.1814 18.8298 13.1237 18.8298 14.2852C18.8298 15.3194 19.6033 16.1778 20.6201 16.3536V19.2384C20.1286 19.3223 19.6807 19.5706 19.3508 19.9419L9.89162 14.6698C9.7398 14.5875 9.64524 14.4297 9.64496 14.258C9.64469 14.0864 9.73875 13.9282 9.8903 13.8455L20.7537 7.76759L20.7524 7.76365ZM32.1512 15.4021C32.3037 15.3163 32.4902 15.3158 32.6431 15.4008C32.7945 15.4837 32.889 15.6413 32.8904 15.8129L32.8996 27.5803C32.8996 27.7509 32.8071 27.9071 32.6537 27.9924L22.1222 33.8853C21.7956 34.0691 21.3857 33.8394 21.3857 33.4732L21.3764 23.3765C21.8868 23.2925 22.3496 23.034 22.6815 22.6481L25.3127 24.1115C25.2402 24.3801 25.2235 24.6605 25.2638 24.9357C25.4304 26.0868 26.5318 26.8873 27.7205 26.7259C28.9105 26.5632 29.7382 25.4988 29.5716 24.3478C29.405 23.1967 28.3022 22.3961 27.1136 22.5589C26.5164 22.6382 25.9791 22.96 25.63 23.4474L23.0517 22.0129C23.2368 21.526 23.2236 20.9892 23.0186 20.5102L32.1526 15.3995L32.1512 15.4021ZM9.60205 15.3352C9.34554 15.3352 9.11019 15.5333 9.11019 15.8116L9.09961 27.579C9.10017 27.7505 9.19429 27.9082 9.34554 27.9911L19.8784 33.884C20.2063 34.0678 20.6162 33.8394 20.6162 33.4732L20.6241 23.3739C20.119 23.2873 19.6615 23.0301 19.3323 22.6468L16.7024 24.1102C16.7751 24.3792 16.7917 24.6601 16.7513 24.9357C16.5821 26.0854 15.4846 26.8873 14.2946 26.7246C13.1046 26.5619 12.2756 25.4975 12.4435 24.3478C12.6114 23.1981 13.7102 22.3961 14.9002 22.5589C15.4973 22.6383 16.0345 22.9601 16.3837 23.4474L18.9607 22.0129C18.7783 21.5273 18.7889 20.9945 18.9912 20.5167L9.84799 15.4008C9.77394 15.3575 9.688 15.3352 9.60205 15.3352Z" fill="white"/>
</svg>
