<svg width="42" height="42" viewBox="0 0 42 42" fill="none" xmlns="http://www.w3.org/2000/svg">
<circle cx="21" cy="21" r="21" fill="#597DD9"/>
<path fill-rule="evenodd" clip-rule="evenodd" d="M21.2136 23.3607L28.4075 11.9H13.9238L21.2136 23.3607ZM32.6312 23.3712C31.7807 22.8476 30.8357 22.5496 29.8776 22.2924H29.8789C29.5952 22.2183 29.3115 22.1513 29.0231 22.0832L29.023 22.0832C28.8309 22.0379 28.6368 21.992 28.439 21.9432C30.3966 19.0057 32.3505 16.0657 34.3008 13.1232C34.2404 13.1154 34.1813 13.1127 34.1223 13.1127C32.8728 13.1127 31.6219 13.1127 30.3724 13.1022C30.1838 13.1022 30.1207 13.195 30.037 13.3179L30.0364 13.3188C27.725 16.8035 25.4137 20.2908 23.1036 23.7821C22.713 24.3753 22.3183 24.9681 21.9171 25.5707L21.9168 25.5712L21.9167 25.5713L21.9165 25.5715C21.6708 25.9405 21.4227 26.3132 21.1716 26.6919C21.1159 26.6282 21.0667 26.5592 21.0246 26.4858C18.1567 22.0968 15.2849 17.7117 12.4105 13.328C12.3336 13.1744 12.1724 13.0814 12.001 13.0917C11.4077 13.097 10.8144 13.097 10.221 13.097C9.62759 13.097 9.034 13.097 8.44008 13.1022C8.38456 13.1022 8.32304 13.1082 8.24648 13.1157L8.24647 13.1157C8.22169 13.1181 8.19532 13.1207 8.16707 13.1232C9.83297 15.6522 11.4664 18.1506 13.1099 20.6645L13.11 20.6647L13.8713 21.8291C13.8267 21.8418 13.7937 21.8468 13.7652 21.8511C13.7468 21.8539 13.7303 21.8564 13.7138 21.8606C13.457 21.9262 13.2004 21.9891 12.944 22.052C12.3186 22.2055 11.6951 22.3584 11.0769 22.5483C10.2054 22.8161 9.36541 23.1652 8.6829 23.7821C7.82057 24.5538 7.84288 25.3557 8.7354 26.1052C8.75073 26.1205 8.7691 26.1335 8.78778 26.1466C8.80587 26.1594 8.82425 26.1724 8.8404 26.1879C9.44941 26.6709 10.1529 26.9898 10.8879 27.2471C13.2098 28.0792 15.6353 28.3981 18.0937 28.5727C18.2455 28.5751 18.3849 28.6568 18.4612 28.7879C19.3517 30.1648 20.2517 31.5355 21.1611 32.9C21.2178 32.8065 21.2809 32.717 21.3501 32.6322C21.7634 32.0155 22.1742 31.3987 22.585 30.7821C23.03 30.1141 23.4749 29.4462 23.9226 28.7787C23.9874 28.6785 24.0894 28.6081 24.2061 28.5832C24.6734 28.5248 25.1419 28.4735 25.6102 28.4222C26.3746 28.3385 27.1382 28.2548 27.8943 28.1409C29.3959 27.9151 30.8659 27.5345 32.2519 26.8664C32.7993 26.6092 33.3138 26.3007 33.6918 25.8177C34.1223 25.2626 34.1538 24.7087 33.6813 24.1837C33.3623 23.8766 33.0093 23.6036 32.6312 23.3712ZM12.7045 25.4476C12.3855 25.2652 12.0981 25.0316 11.854 24.7599V24.7586C11.5946 24.4912 11.5993 24.0647 11.8645 23.8031C12.0924 23.5372 12.3663 23.3145 12.673 23.1455C13.1468 22.9184 13.6351 22.7229 14.1338 22.5588C14.2295 22.5428 14.3271 22.5735 14.3963 22.6415C14.8158 23.2752 15.2327 23.9112 15.6498 24.5474L15.6499 24.5476L15.6501 24.5479C16.0786 25.2014 16.5071 25.8551 16.9387 26.5068C16.9439 26.5167 16.9466 26.5294 16.9505 26.5486C16.9544 26.5678 16.9597 26.5934 16.9702 26.6289C15.4673 26.4031 14.017 26.1472 12.7045 25.4476ZM28.397 25.8689C28.9694 25.7144 29.4932 25.4172 29.9196 25.0053C30.3409 24.5853 30.3409 24.1115 29.9196 23.6797C29.8154 23.567 29.6956 23.4697 29.5639 23.3909C29.3024 23.2602 29.0339 23.133 28.7642 23.0052L28.764 23.0051C28.568 22.9123 28.3715 22.8192 28.1765 22.7242C28.019 22.6415 27.9245 22.7032 27.83 22.8476C27.3959 23.5172 26.9537 24.1767 26.5105 24.8376L26.5103 24.8378L26.3285 25.109C26.1215 25.4195 25.9145 25.7345 25.7045 26.0541C25.595 26.2208 25.4846 26.3888 25.373 26.558C25.4566 26.5685 25.5413 26.5685 25.625 26.558C25.8865 26.4941 26.1488 26.4318 26.4112 26.3695L26.4115 26.3694L26.4115 26.3694C27.0764 26.2115 27.7421 26.0534 28.397 25.8689Z" fill="white"/>
</svg>
